<mxfile host="Electron" modified="2024-02-10T19:12:35.417Z" agent="Mozilla/5.0 (Windows NT 10.0; Win64; x64) AppleWebKit/537.36 (KHTML, like Gecko) draw.io/23.0.2 Chrome/120.0.6099.109 Electron/28.1.0 Safari/537.36" etag="UjNIWfcCT6xquUh5XHS4" version="23.0.2" type="device">
  <diagram name="Страница — 1" id="lwFxoNZVOsWcV77fsAZV">
    <mxGraphModel dx="1221" dy="823" grid="1" gridSize="10" guides="1" tooltips="1" connect="1" arrows="1" fold="1" page="1" pageScale="1" pageWidth="827" pageHeight="1169" math="0" shadow="0">
      <root>
        <mxCell id="0" />
        <mxCell id="1" parent="0" />
        <mxCell id="IgeLQids6hlCfI4V9-Eq-91" value="" style="rounded=1;whiteSpace=wrap;html=1;fillColor=#fff2cc;strokeColor=#d6b656;" parent="1" vertex="1">
          <mxGeometry x="600" y="250" width="580" height="530" as="geometry" />
        </mxCell>
        <mxCell id="IgeLQids6hlCfI4V9-Eq-19" value="" style="rounded=1;whiteSpace=wrap;html=1;" parent="1" vertex="1">
          <mxGeometry x="820" y="430" width="330" height="170" as="geometry" />
        </mxCell>
        <mxCell id="IgeLQids6hlCfI4V9-Eq-20" value="&lt;b&gt;Информация&lt;/b&gt;" style="text;html=1;strokeColor=none;fillColor=none;align=center;verticalAlign=middle;whiteSpace=wrap;rounded=0;" parent="1" vertex="1">
          <mxGeometry x="890" y="430" width="190" height="30" as="geometry" />
        </mxCell>
        <mxCell id="IgeLQids6hlCfI4V9-Eq-24" value="&lt;font color=&quot;#0000ff&quot;&gt;Переход на главную страницу&lt;/font&gt;" style="text;html=1;strokeColor=none;fillColor=none;align=center;verticalAlign=middle;whiteSpace=wrap;rounded=0;" parent="1" vertex="1">
          <mxGeometry x="898" y="530" width="174" height="30" as="geometry" />
        </mxCell>
        <mxCell id="IgeLQids6hlCfI4V9-Eq-25" value="&lt;font style=&quot;font-size: 30px;&quot;&gt;&amp;lt;Сообщение&amp;gt;&lt;br&gt;&lt;/font&gt;" style="text;html=1;strokeColor=none;fillColor=none;align=center;verticalAlign=middle;whiteSpace=wrap;rounded=0;" parent="1" vertex="1">
          <mxGeometry x="868" y="490" width="225" height="30" as="geometry" />
        </mxCell>
        <mxCell id="IgeLQids6hlCfI4V9-Eq-92" value="" style="rounded=0;whiteSpace=wrap;html=1;" parent="1" vertex="1">
          <mxGeometry x="780" y="900" width="340" height="190" as="geometry" />
        </mxCell>
        <mxCell id="IgeLQids6hlCfI4V9-Eq-94" value="&lt;font style=&quot;font-size: 30px;&quot;&gt;Личный кабинет&lt;br&gt;&lt;/font&gt;" style="text;html=1;strokeColor=none;fillColor=none;align=center;verticalAlign=middle;whiteSpace=wrap;rounded=0;" parent="1" vertex="1">
          <mxGeometry x="780" y="910" width="238" height="30" as="geometry" />
        </mxCell>
        <mxCell id="IgeLQids6hlCfI4V9-Eq-96" value="Выйти" style="rounded=0;whiteSpace=wrap;html=1;fillColor=#f8cecc;strokeColor=#b85450;" parent="1" vertex="1">
          <mxGeometry x="1045" y="912" width="60" height="30" as="geometry" />
        </mxCell>
        <mxCell id="IgeLQids6hlCfI4V9-Eq-97" value="" style="ellipse;whiteSpace=wrap;html=1;" parent="1" vertex="1">
          <mxGeometry x="590" y="315" width="20" height="20" as="geometry" />
        </mxCell>
        <mxCell id="IgeLQids6hlCfI4V9-Eq-100" value="" style="ellipse;whiteSpace=wrap;html=1;" parent="1" vertex="1">
          <mxGeometry x="590" y="565" width="20" height="20" as="geometry" />
        </mxCell>
        <mxCell id="IgeLQids6hlCfI4V9-Eq-102" value="" style="ellipse;whiteSpace=wrap;html=1;" parent="1" vertex="1">
          <mxGeometry x="975" y="770" width="20" height="20" as="geometry" />
        </mxCell>
        <mxCell id="IgeLQids6hlCfI4V9-Eq-103" value="" style="endArrow=classic;html=1;rounded=1;exitX=0.5;exitY=0;exitDx=0;exitDy=0;entryX=0.5;entryY=1;entryDx=0;entryDy=0;curved=0;" parent="1" source="IgeLQids6hlCfI4V9-Eq-102" target="dGpeaqjXoYI7zpuX5_f6-19" edge="1">
          <mxGeometry width="50" height="50" relative="1" as="geometry">
            <mxPoint x="200" y="645" as="sourcePoint" />
            <mxPoint x="985" y="760" as="targetPoint" />
          </mxGeometry>
        </mxCell>
        <mxCell id="IgeLQids6hlCfI4V9-Eq-105" value="" style="ellipse;whiteSpace=wrap;html=1;" parent="1" vertex="1">
          <mxGeometry x="975" y="240" width="20" height="20" as="geometry" />
        </mxCell>
        <mxCell id="IgeLQids6hlCfI4V9-Eq-107" value="" style="shape=sumEllipse;perimeter=ellipsePerimeter;html=1;backgroundOutline=1;" parent="1" vertex="1">
          <mxGeometry x="700" y="770" width="20" height="20" as="geometry" />
        </mxCell>
        <mxCell id="IgeLQids6hlCfI4V9-Eq-110" value="" style="rhombus;whiteSpace=wrap;html=1;" parent="1" vertex="1">
          <mxGeometry x="695" y="922" width="30" height="10" as="geometry" />
        </mxCell>
        <mxCell id="IgeLQids6hlCfI4V9-Eq-111" value="" style="endArrow=classic;html=1;rounded=1;exitX=0.5;exitY=1;exitDx=0;exitDy=0;entryX=0;entryY=0.25;entryDx=0;entryDy=0;curved=0;jumpStyle=arc;" parent="1" source="IgeLQids6hlCfI4V9-Eq-110" target="IgeLQids6hlCfI4V9-Eq-92" edge="1">
          <mxGeometry width="50" height="50" relative="1" as="geometry">
            <mxPoint x="995" y="790" as="sourcePoint" />
            <mxPoint x="995" y="770" as="targetPoint" />
            <Array as="points">
              <mxPoint x="710" y="948" />
            </Array>
          </mxGeometry>
        </mxCell>
        <mxCell id="IgeLQids6hlCfI4V9-Eq-112" value="" style="endArrow=classic;html=1;rounded=1;exitX=0.5;exitY=1;exitDx=0;exitDy=0;entryX=0.5;entryY=0;entryDx=0;entryDy=0;curved=0;jumpStyle=arc;" parent="1" source="IgeLQids6hlCfI4V9-Eq-107" target="IgeLQids6hlCfI4V9-Eq-110" edge="1">
          <mxGeometry width="50" height="50" relative="1" as="geometry">
            <mxPoint x="705" y="910" as="sourcePoint" />
            <mxPoint x="705" y="980" as="targetPoint" />
          </mxGeometry>
        </mxCell>
        <mxCell id="IgeLQids6hlCfI4V9-Eq-113" value="" style="ellipse;fillColor=strokeColor;html=1;" parent="1" vertex="1">
          <mxGeometry x="285" y="1005" width="30" height="30" as="geometry" />
        </mxCell>
        <mxCell id="IgeLQids6hlCfI4V9-Eq-114" value="" style="rhombus;whiteSpace=wrap;html=1;" parent="1" vertex="1">
          <mxGeometry x="285" y="922" width="30" height="10" as="geometry" />
        </mxCell>
        <mxCell id="IgeLQids6hlCfI4V9-Eq-115" value="" style="endArrow=classic;html=1;rounded=1;entryX=0.5;entryY=1;entryDx=0;entryDy=0;curved=0;jumpStyle=arc;" parent="1" source="IgeLQids6hlCfI4V9-Eq-113" target="IgeLQids6hlCfI4V9-Eq-114" edge="1">
          <mxGeometry width="50" height="50" relative="1" as="geometry">
            <mxPoint x="1120" y="905" as="sourcePoint" />
            <mxPoint x="1120" y="975" as="targetPoint" />
          </mxGeometry>
        </mxCell>
        <mxCell id="IgeLQids6hlCfI4V9-Eq-116" value="" style="endArrow=classic;html=1;rounded=1;exitX=1;exitY=0.5;exitDx=0;exitDy=0;entryX=0;entryY=0.5;entryDx=0;entryDy=0;curved=0;jumpStyle=arc;" parent="1" source="IgeLQids6hlCfI4V9-Eq-114" target="IgeLQids6hlCfI4V9-Eq-110" edge="1">
          <mxGeometry width="50" height="50" relative="1" as="geometry">
            <mxPoint x="-150" y="905" as="sourcePoint" />
            <mxPoint x="-120" y="905" as="targetPoint" />
          </mxGeometry>
        </mxCell>
        <mxCell id="IgeLQids6hlCfI4V9-Eq-117" value="[роль = Пользователь]" style="edgeLabel;html=1;align=center;verticalAlign=middle;resizable=0;points=[];" parent="IgeLQids6hlCfI4V9-Eq-116" vertex="1" connectable="0">
          <mxGeometry x="-0.4404" y="3" relative="1" as="geometry">
            <mxPoint x="177" y="-12" as="offset" />
          </mxGeometry>
        </mxCell>
        <mxCell id="IgeLQids6hlCfI4V9-Eq-118" value="" style="rhombus;whiteSpace=wrap;html=1;" parent="1" vertex="1">
          <mxGeometry x="285" y="850" width="30" height="10" as="geometry" />
        </mxCell>
        <mxCell id="IgeLQids6hlCfI4V9-Eq-119" value="" style="endArrow=classic;html=1;rounded=1;exitX=0.5;exitY=0;exitDx=0;exitDy=0;entryX=0.5;entryY=1;entryDx=0;entryDy=0;curved=0;jumpStyle=arc;" parent="1" source="IgeLQids6hlCfI4V9-Eq-114" target="IgeLQids6hlCfI4V9-Eq-118" edge="1">
          <mxGeometry width="50" height="50" relative="1" as="geometry">
            <mxPoint x="265" y="900" as="sourcePoint" />
            <mxPoint x="295" y="900" as="targetPoint" />
          </mxGeometry>
        </mxCell>
        <mxCell id="IgeLQids6hlCfI4V9-Eq-120" value="[else]" style="edgeLabel;html=1;align=center;verticalAlign=middle;resizable=0;points=[];" parent="IgeLQids6hlCfI4V9-Eq-119" vertex="1" connectable="0">
          <mxGeometry x="0.0516" y="1" relative="1" as="geometry">
            <mxPoint x="16" as="offset" />
          </mxGeometry>
        </mxCell>
        <mxCell id="IgeLQids6hlCfI4V9-Eq-121" value="" style="endArrow=classic;html=1;rounded=1;exitX=1;exitY=0.5;exitDx=0;exitDy=0;curved=0;jumpStyle=arc;entryX=0;entryY=0.5;entryDx=0;entryDy=0;" parent="1" source="IgeLQids6hlCfI4V9-Eq-118" target="dGpeaqjXoYI7zpuX5_f6-31" edge="1">
          <mxGeometry width="50" height="50" relative="1" as="geometry">
            <mxPoint x="-200" y="832.5" as="sourcePoint" />
            <mxPoint x="910" y="832.5" as="targetPoint" />
            <Array as="points" />
          </mxGeometry>
        </mxCell>
        <mxCell id="IgeLQids6hlCfI4V9-Eq-122" value="[ссылка на страницу ввода нового пароля]" style="edgeLabel;html=1;align=center;verticalAlign=middle;resizable=0;points=[];" parent="IgeLQids6hlCfI4V9-Eq-121" vertex="1" connectable="0">
          <mxGeometry x="-0.4404" y="3" relative="1" as="geometry">
            <mxPoint x="110" y="-13" as="offset" />
          </mxGeometry>
        </mxCell>
        <mxCell id="IgeLQids6hlCfI4V9-Eq-123" value="" style="rhombus;whiteSpace=wrap;html=1;" parent="1" vertex="1">
          <mxGeometry x="285" y="570" width="30" height="10" as="geometry" />
        </mxCell>
        <mxCell id="IgeLQids6hlCfI4V9-Eq-124" value="" style="endArrow=classic;html=1;rounded=1;exitX=0.5;exitY=0;exitDx=0;exitDy=0;entryX=0.5;entryY=1;entryDx=0;entryDy=0;curved=0;jumpStyle=arc;" parent="1" source="IgeLQids6hlCfI4V9-Eq-118" target="IgeLQids6hlCfI4V9-Eq-123" edge="1">
          <mxGeometry width="50" height="50" relative="1" as="geometry">
            <mxPoint x="300" y="815" as="sourcePoint" />
            <mxPoint x="295" y="830" as="targetPoint" />
          </mxGeometry>
        </mxCell>
        <mxCell id="IgeLQids6hlCfI4V9-Eq-125" value="[else]" style="edgeLabel;html=1;align=center;verticalAlign=middle;resizable=0;points=[];" parent="IgeLQids6hlCfI4V9-Eq-124" vertex="1" connectable="0">
          <mxGeometry x="0.0516" y="1" relative="1" as="geometry">
            <mxPoint x="16" as="offset" />
          </mxGeometry>
        </mxCell>
        <mxCell id="IgeLQids6hlCfI4V9-Eq-126" value="" style="endArrow=classic;html=1;rounded=1;exitX=1;exitY=0.5;exitDx=0;exitDy=0;entryX=0;entryY=0.5;entryDx=0;entryDy=0;curved=0;jumpStyle=arc;" parent="1" source="IgeLQids6hlCfI4V9-Eq-123" target="IgeLQids6hlCfI4V9-Eq-129" edge="1">
          <mxGeometry width="50" height="50" relative="1" as="geometry">
            <mxPoint x="310" y="780" as="sourcePoint" />
            <mxPoint x="310" y="720" as="targetPoint" />
          </mxGeometry>
        </mxCell>
        <mxCell id="IgeLQids6hlCfI4V9-Eq-127" value="[ссылка на страницу входа]" style="edgeLabel;html=1;align=center;verticalAlign=middle;resizable=0;points=[];" parent="IgeLQids6hlCfI4V9-Eq-126" vertex="1" connectable="0">
          <mxGeometry x="0.0516" y="1" relative="1" as="geometry">
            <mxPoint x="-9" y="-9" as="offset" />
          </mxGeometry>
        </mxCell>
        <mxCell id="IgeLQids6hlCfI4V9-Eq-129" value="" style="rhombus;whiteSpace=wrap;html=1;" parent="1" vertex="1">
          <mxGeometry x="465" y="570" width="30" height="10" as="geometry" />
        </mxCell>
        <mxCell id="IgeLQids6hlCfI4V9-Eq-131" value="" style="endArrow=classic;html=1;rounded=1;exitX=1;exitY=0.5;exitDx=0;exitDy=0;entryX=0;entryY=0.5;entryDx=0;entryDy=0;curved=0;jumpStyle=arc;" parent="1" source="IgeLQids6hlCfI4V9-Eq-129" target="IgeLQids6hlCfI4V9-Eq-100" edge="1">
          <mxGeometry width="50" height="50" relative="1" as="geometry">
            <mxPoint x="1120" y="850" as="sourcePoint" />
            <mxPoint x="1120" y="920" as="targetPoint" />
          </mxGeometry>
        </mxCell>
        <mxCell id="IgeLQids6hlCfI4V9-Eq-132" value="" style="endArrow=classic;html=1;rounded=1;exitX=0;exitY=0.5;exitDx=0;exitDy=0;entryX=0.5;entryY=0;entryDx=0;entryDy=0;curved=0;jumpStyle=arc;" parent="1" source="IgeLQids6hlCfI4V9-Eq-91" target="IgeLQids6hlCfI4V9-Eq-129" edge="1">
          <mxGeometry width="50" height="50" relative="1" as="geometry">
            <mxPoint x="90" y="645" as="sourcePoint" />
            <mxPoint x="180" y="645" as="targetPoint" />
            <Array as="points">
              <mxPoint x="480" y="515" />
            </Array>
          </mxGeometry>
        </mxCell>
        <mxCell id="IgeLQids6hlCfI4V9-Eq-133" value="Переход на главную страницу" style="edgeLabel;html=1;align=center;verticalAlign=middle;resizable=0;points=[];" parent="IgeLQids6hlCfI4V9-Eq-132" vertex="1" connectable="0">
          <mxGeometry x="-0.0463" y="-1" relative="1" as="geometry">
            <mxPoint x="3" y="-9" as="offset" />
          </mxGeometry>
        </mxCell>
        <mxCell id="IgeLQids6hlCfI4V9-Eq-134" value="" style="endArrow=classic;html=1;rounded=1;exitX=0;exitY=0.5;exitDx=0;exitDy=0;entryX=0.5;entryY=1;entryDx=0;entryDy=0;curved=0;jumpStyle=arc;" parent="1" source="IgeLQids6hlCfI4V9-Eq-92" target="IgeLQids6hlCfI4V9-Eq-129" edge="1">
          <mxGeometry width="50" height="50" relative="1" as="geometry">
            <mxPoint x="190" y="570" as="sourcePoint" />
            <mxPoint x="75" y="640" as="targetPoint" />
            <Array as="points">
              <mxPoint x="480" y="995" />
            </Array>
          </mxGeometry>
        </mxCell>
        <mxCell id="IgeLQids6hlCfI4V9-Eq-135" value="Нажали кнопку &quot;Выйти&quot;" style="edgeLabel;html=1;align=center;verticalAlign=middle;resizable=0;points=[];" parent="IgeLQids6hlCfI4V9-Eq-134" vertex="1" connectable="0">
          <mxGeometry x="-0.0463" y="-1" relative="1" as="geometry">
            <mxPoint x="229" y="30" as="offset" />
          </mxGeometry>
        </mxCell>
        <mxCell id="IgeLQids6hlCfI4V9-Eq-136" value="" style="rhombus;whiteSpace=wrap;html=1;" parent="1" vertex="1">
          <mxGeometry x="505" y="320" width="30" height="10" as="geometry" />
        </mxCell>
        <mxCell id="IgeLQids6hlCfI4V9-Eq-137" value="" style="endArrow=classic;html=1;rounded=1;exitX=1;exitY=0.5;exitDx=0;exitDy=0;entryX=0;entryY=0.5;entryDx=0;entryDy=0;curved=0;jumpStyle=arc;" parent="1" source="IgeLQids6hlCfI4V9-Eq-136" edge="1" target="IgeLQids6hlCfI4V9-Eq-97">
          <mxGeometry width="50" height="50" relative="1" as="geometry">
            <mxPoint x="1120" y="600" as="sourcePoint" />
            <mxPoint x="585" y="325" as="targetPoint" />
          </mxGeometry>
        </mxCell>
        <mxCell id="IgeLQids6hlCfI4V9-Eq-138" value="" style="endArrow=classic;html=1;rounded=1;exitX=0;exitY=0.25;exitDx=0;exitDy=0;curved=0;jumpStyle=arc;" parent="1" source="IgeLQids6hlCfI4V9-Eq-91" edge="1">
          <mxGeometry width="50" height="50" relative="1" as="geometry">
            <mxPoint x="180" y="255" as="sourcePoint" />
            <mxPoint x="520" y="330" as="targetPoint" />
            <Array as="points">
              <mxPoint x="520" y="383" />
            </Array>
          </mxGeometry>
        </mxCell>
        <mxCell id="IgeLQids6hlCfI4V9-Eq-139" value="Переход на страницу регистрации" style="edgeLabel;html=1;align=center;verticalAlign=middle;resizable=0;points=[];" parent="IgeLQids6hlCfI4V9-Eq-138" vertex="1" connectable="0">
          <mxGeometry x="-0.0463" y="-1" relative="1" as="geometry">
            <mxPoint x="-27" y="8" as="offset" />
          </mxGeometry>
        </mxCell>
        <mxCell id="IgeLQids6hlCfI4V9-Eq-140" value="" style="rhombus;whiteSpace=wrap;html=1;" parent="1" vertex="1">
          <mxGeometry x="285" y="320" width="30" height="10" as="geometry" />
        </mxCell>
        <mxCell id="IgeLQids6hlCfI4V9-Eq-141" value="" style="endArrow=classic;html=1;rounded=1;exitX=0.5;exitY=0;exitDx=0;exitDy=0;entryX=0.5;entryY=1;entryDx=0;entryDy=0;curved=0;jumpStyle=arc;" parent="1" source="IgeLQids6hlCfI4V9-Eq-123" target="IgeLQids6hlCfI4V9-Eq-140" edge="1">
          <mxGeometry width="50" height="50" relative="1" as="geometry">
            <mxPoint x="300" y="575" as="sourcePoint" />
            <mxPoint x="295" y="580" as="targetPoint" />
          </mxGeometry>
        </mxCell>
        <mxCell id="IgeLQids6hlCfI4V9-Eq-142" value="[else]" style="edgeLabel;html=1;align=center;verticalAlign=middle;resizable=0;points=[];" parent="IgeLQids6hlCfI4V9-Eq-141" vertex="1" connectable="0">
          <mxGeometry x="0.0516" y="1" relative="1" as="geometry">
            <mxPoint x="16" as="offset" />
          </mxGeometry>
        </mxCell>
        <mxCell id="IgeLQids6hlCfI4V9-Eq-143" value="" style="endArrow=classic;html=1;rounded=1;exitX=1;exitY=0.5;exitDx=0;exitDy=0;entryX=0;entryY=0.5;entryDx=0;entryDy=0;curved=0;jumpStyle=arc;" parent="1" source="IgeLQids6hlCfI4V9-Eq-140" target="IgeLQids6hlCfI4V9-Eq-136" edge="1">
          <mxGeometry width="50" height="50" relative="1" as="geometry">
            <mxPoint x="325" y="640" as="sourcePoint" />
            <mxPoint x="475" y="640" as="targetPoint" />
          </mxGeometry>
        </mxCell>
        <mxCell id="IgeLQids6hlCfI4V9-Eq-144" value="[ссылка на страницу регистрации]" style="edgeLabel;html=1;align=center;verticalAlign=middle;resizable=0;points=[];" parent="IgeLQids6hlCfI4V9-Eq-143" vertex="1" connectable="0">
          <mxGeometry x="0.0516" y="1" relative="1" as="geometry">
            <mxPoint x="-9" y="-9" as="offset" />
          </mxGeometry>
        </mxCell>
        <mxCell id="IgeLQids6hlCfI4V9-Eq-145" value="" style="rhombus;whiteSpace=wrap;html=1;" parent="1" vertex="1">
          <mxGeometry x="285" y="199.73999999999995" width="30" height="10" as="geometry" />
        </mxCell>
        <mxCell id="IgeLQids6hlCfI4V9-Eq-146" value="" style="endArrow=classic;html=1;rounded=1;exitX=0.5;exitY=0;exitDx=0;exitDy=0;entryX=0.5;entryY=1;entryDx=0;entryDy=0;curved=0;jumpStyle=arc;" parent="1" source="IgeLQids6hlCfI4V9-Eq-140" target="IgeLQids6hlCfI4V9-Eq-145" edge="1">
          <mxGeometry width="50" height="50" relative="1" as="geometry">
            <mxPoint x="300" y="296.53" as="sourcePoint" />
            <mxPoint x="295" y="301.53" as="targetPoint" />
          </mxGeometry>
        </mxCell>
        <mxCell id="IgeLQids6hlCfI4V9-Eq-147" value="[else]" style="edgeLabel;html=1;align=center;verticalAlign=middle;resizable=0;points=[];" parent="IgeLQids6hlCfI4V9-Eq-146" vertex="1" connectable="0">
          <mxGeometry x="0.0516" y="1" relative="1" as="geometry">
            <mxPoint x="16" as="offset" />
          </mxGeometry>
        </mxCell>
        <mxCell id="IgeLQids6hlCfI4V9-Eq-148" value="" style="endArrow=classic;html=1;rounded=1;exitX=0.5;exitY=0;exitDx=0;exitDy=0;curved=0;jumpStyle=arc;entryX=0.5;entryY=1;entryDx=0;entryDy=0;" parent="1" source="IgeLQids6hlCfI4V9-Eq-91" target="IgeLQids6hlCfI4V9-Eq-151" edge="1">
          <mxGeometry width="50" height="50" relative="1" as="geometry">
            <mxPoint x="705" y="311.53" as="sourcePoint" />
            <mxPoint x="860" y="120" as="targetPoint" />
          </mxGeometry>
        </mxCell>
        <mxCell id="IgeLQids6hlCfI4V9-Eq-149" value="Переход на страницу восстановления пароля" style="edgeLabel;html=1;align=center;verticalAlign=middle;resizable=0;points=[];" parent="IgeLQids6hlCfI4V9-Eq-148" vertex="1" connectable="0">
          <mxGeometry x="0.0516" y="1" relative="1" as="geometry">
            <mxPoint x="-119" y="11" as="offset" />
          </mxGeometry>
        </mxCell>
        <mxCell id="IgeLQids6hlCfI4V9-Eq-151" value="" style="rhombus;whiteSpace=wrap;html=1;" parent="1" vertex="1">
          <mxGeometry x="875" y="199.73999999999995" width="30" height="10" as="geometry" />
        </mxCell>
        <mxCell id="IgeLQids6hlCfI4V9-Eq-152" value="" style="endArrow=classic;html=1;rounded=1;exitX=1;exitY=0.5;exitDx=0;exitDy=0;curved=0;jumpStyle=arc;entryX=0;entryY=0.5;entryDx=0;entryDy=0;" parent="1" source="IgeLQids6hlCfI4V9-Eq-145" target="IgeLQids6hlCfI4V9-Eq-151" edge="1">
          <mxGeometry width="50" height="50" relative="1" as="geometry">
            <mxPoint x="545" y="399.74" as="sourcePoint" />
            <mxPoint x="775" y="169.74" as="targetPoint" />
          </mxGeometry>
        </mxCell>
        <mxCell id="IgeLQids6hlCfI4V9-Eq-157" value="[ссылка на страницу восстановления пароля]" style="edgeLabel;html=1;align=center;verticalAlign=middle;resizable=0;points=[];" parent="IgeLQids6hlCfI4V9-Eq-152" vertex="1" connectable="0">
          <mxGeometry x="-0.6346" y="1" relative="1" as="geometry">
            <mxPoint x="119" y="-14" as="offset" />
          </mxGeometry>
        </mxCell>
        <mxCell id="IgeLQids6hlCfI4V9-Eq-153" value="" style="endArrow=classic;html=1;rounded=1;exitX=1;exitY=0.5;exitDx=0;exitDy=0;curved=0;jumpStyle=arc;entryX=0.5;entryY=0;entryDx=0;entryDy=0;" parent="1" source="IgeLQids6hlCfI4V9-Eq-151" target="IgeLQids6hlCfI4V9-Eq-105" edge="1">
          <mxGeometry width="50" height="50" relative="1" as="geometry">
            <mxPoint x="-90" y="155" as="sourcePoint" />
            <mxPoint x="515" y="155" as="targetPoint" />
            <Array as="points">
              <mxPoint x="985" y="205" />
            </Array>
          </mxGeometry>
        </mxCell>
        <mxCell id="IgeLQids6hlCfI4V9-Eq-154" value="404" style="rounded=1;whiteSpace=wrap;html=1;fillColor=#ffcc99;strokeColor=#36393d;" parent="1" vertex="1">
          <mxGeometry x="275" y="99.74" width="50" height="35" as="geometry" />
        </mxCell>
        <mxCell id="IgeLQids6hlCfI4V9-Eq-155" value="" style="endArrow=classic;html=1;rounded=1;exitX=0.5;exitY=0;exitDx=0;exitDy=0;entryX=0.5;entryY=1;entryDx=0;entryDy=0;curved=0;jumpStyle=arc;" parent="1" source="IgeLQids6hlCfI4V9-Eq-145" target="IgeLQids6hlCfI4V9-Eq-154" edge="1">
          <mxGeometry width="50" height="50" relative="1" as="geometry">
            <mxPoint x="310" y="394.74" as="sourcePoint" />
            <mxPoint x="310" y="219.74" as="targetPoint" />
          </mxGeometry>
        </mxCell>
        <mxCell id="IgeLQids6hlCfI4V9-Eq-156" value="[else]" style="edgeLabel;html=1;align=center;verticalAlign=middle;resizable=0;points=[];" parent="IgeLQids6hlCfI4V9-Eq-155" vertex="1" connectable="0">
          <mxGeometry x="0.0516" y="1" relative="1" as="geometry">
            <mxPoint x="16" y="-6" as="offset" />
          </mxGeometry>
        </mxCell>
        <mxCell id="IgeLQids6hlCfI4V9-Eq-158" value="&quot;Ваш пароль изменён&quot;" style="shape=note2;boundedLbl=1;whiteSpace=wrap;html=1;size=25;verticalAlign=top;align=center;fillColor=#d5e8d4;gradientColor=#97d077;strokeColor=#82b366;" parent="1" vertex="1">
          <mxGeometry x="785" y="615" width="120" height="60" as="geometry" />
        </mxCell>
        <mxCell id="IgeLQids6hlCfI4V9-Eq-159" value="&quot;Ваш пароль изменён&quot;" style="shape=note2;boundedLbl=1;whiteSpace=wrap;html=1;size=25;verticalAlign=top;align=center;fillColor=#d5e8d4;gradientColor=#97d077;strokeColor=#82b366;" parent="1" vertex="1">
          <mxGeometry x="1210" y="355" width="120" height="60" as="geometry" />
        </mxCell>
        <mxCell id="IgeLQids6hlCfI4V9-Eq-160" value="" style="endArrow=none;dashed=1;html=1;rounded=0;entryX=0;entryY=0;entryDx=119.99999999999999;entryDy=25;entryPerimeter=0;" parent="1" target="IgeLQids6hlCfI4V9-Eq-158" edge="1">
          <mxGeometry width="50" height="50" relative="1" as="geometry">
            <mxPoint x="980" y="640" as="sourcePoint" />
            <mxPoint x="1400" y="470" as="targetPoint" />
          </mxGeometry>
        </mxCell>
        <mxCell id="IgeLQids6hlCfI4V9-Eq-161" value="" style="endArrow=none;dashed=1;html=1;rounded=0;entryX=0;entryY=0.5;entryDx=0;entryDy=0;entryPerimeter=0;" parent="1" target="IgeLQids6hlCfI4V9-Eq-159" edge="1">
          <mxGeometry width="50" height="50" relative="1" as="geometry">
            <mxPoint x="990" y="385" as="sourcePoint" />
            <mxPoint x="1570" y="595" as="targetPoint" />
          </mxGeometry>
        </mxCell>
        <mxCell id="Hw_Np0mPRpR-K1o3CZ9B-4" value="" style="endArrow=classic;html=1;rounded=1;exitX=0;exitY=0.5;exitDx=0;exitDy=0;entryX=0.5;entryY=1;entryDx=0;entryDy=0;curved=0;jumpStyle=arc;" parent="1" source="dGpeaqjXoYI7zpuX5_f6-33" target="IgeLQids6hlCfI4V9-Eq-102" edge="1">
          <mxGeometry width="50" height="50" relative="1" as="geometry">
            <mxPoint x="985" y="833" as="sourcePoint" />
            <mxPoint x="705" y="900" as="targetPoint" />
          </mxGeometry>
        </mxCell>
        <mxCell id="Hw_Np0mPRpR-K1o3CZ9B-5" value="успех" style="edgeLabel;html=1;align=center;verticalAlign=middle;resizable=0;points=[];" parent="Hw_Np0mPRpR-K1o3CZ9B-4" vertex="1" connectable="0">
          <mxGeometry x="-0.1255" y="-1" relative="1" as="geometry">
            <mxPoint x="14" y="3" as="offset" />
          </mxGeometry>
        </mxCell>
        <mxCell id="Hw_Np0mPRpR-K1o3CZ9B-6" value="" style="endArrow=classic;html=1;rounded=1;exitX=0.517;exitY=0.207;exitDx=0;exitDy=0;curved=0;jumpStyle=arc;entryX=0.5;entryY=1;entryDx=0;entryDy=0;exitPerimeter=0;" parent="1" source="dGpeaqjXoYI7zpuX5_f6-32" target="Hw_Np0mPRpR-K1o3CZ9B-8" edge="1">
          <mxGeometry width="50" height="50" relative="1" as="geometry">
            <mxPoint x="1000" y="838" as="sourcePoint" />
            <mxPoint x="1410" y="800" as="targetPoint" />
            <Array as="points">
              <mxPoint x="1100" y="860" />
            </Array>
          </mxGeometry>
        </mxCell>
        <mxCell id="dGpeaqjXoYI7zpuX5_f6-34" value="провал" style="edgeLabel;html=1;align=center;verticalAlign=middle;resizable=0;points=[];" vertex="1" connectable="0" parent="Hw_Np0mPRpR-K1o3CZ9B-6">
          <mxGeometry x="-0.5363" y="1" relative="1" as="geometry">
            <mxPoint y="11" as="offset" />
          </mxGeometry>
        </mxCell>
        <mxCell id="Hw_Np0mPRpR-K1o3CZ9B-8" value="" style="ellipse;whiteSpace=wrap;html=1;" parent="1" vertex="1">
          <mxGeometry x="1090" y="770" width="20" height="20" as="geometry" />
        </mxCell>
        <mxCell id="Hw_Np0mPRpR-K1o3CZ9B-9" value="" style="endArrow=classic;html=1;rounded=1;entryX=0.856;entryY=0.996;entryDx=0;entryDy=0;curved=0;exitX=0.5;exitY=0;exitDx=0;exitDy=0;entryPerimeter=0;" parent="1" source="Hw_Np0mPRpR-K1o3CZ9B-8" target="IgeLQids6hlCfI4V9-Eq-19" edge="1">
          <mxGeometry width="50" height="50" relative="1" as="geometry">
            <mxPoint x="1170" y="520" as="sourcePoint" />
            <mxPoint x="655" y="773" as="targetPoint" />
          </mxGeometry>
        </mxCell>
        <mxCell id="Hw_Np0mPRpR-K1o3CZ9B-10" value="&quot;Восстановление пароля невозможно&quot;" style="shape=note2;boundedLbl=1;whiteSpace=wrap;html=1;size=25;verticalAlign=top;align=center;fillColor=#d5e8d4;gradientColor=#97d077;strokeColor=#82b366;" parent="1" vertex="1">
          <mxGeometry x="1200" y="650" width="120" height="60" as="geometry" />
        </mxCell>
        <mxCell id="dGpeaqjXoYI7zpuX5_f6-1" value="Регистрация" style="shape=umlState;rounded=1;verticalAlign=top;spacingTop=5;umlStateSymbol=collapseState;absoluteArcSize=1;arcSize=10;html=1;whiteSpace=wrap;fillColor=#ffcc99;strokeColor=#36393d;" vertex="1" parent="1">
          <mxGeometry x="640" y="295" width="140" height="60" as="geometry" />
        </mxCell>
        <mxCell id="dGpeaqjXoYI7zpuX5_f6-2" value="Вход" style="shape=umlState;rounded=1;verticalAlign=top;spacingTop=5;umlStateSymbol=collapseState;absoluteArcSize=1;arcSize=10;html=1;whiteSpace=wrap;fillColor=#ffcc99;strokeColor=#36393d;" vertex="1" parent="1">
          <mxGeometry x="640" y="675" width="140" height="60" as="geometry" />
        </mxCell>
        <mxCell id="dGpeaqjXoYI7zpuX5_f6-5" value="" style="ellipse;whiteSpace=wrap;html=1;" vertex="1" parent="1">
          <mxGeometry x="630" y="315" width="20" height="20" as="geometry" />
        </mxCell>
        <mxCell id="dGpeaqjXoYI7zpuX5_f6-6" value="" style="ellipse;whiteSpace=wrap;html=1;" vertex="1" parent="1">
          <mxGeometry x="660" y="665" width="20" height="20" as="geometry" />
        </mxCell>
        <mxCell id="dGpeaqjXoYI7zpuX5_f6-9" value="" style="endArrow=classic;html=1;rounded=1;exitX=1;exitY=0.5;exitDx=0;exitDy=0;entryX=0;entryY=0.5;entryDx=0;entryDy=0;curved=0;jumpStyle=arc;" edge="1" parent="1" source="IgeLQids6hlCfI4V9-Eq-100" target="dGpeaqjXoYI7zpuX5_f6-12">
          <mxGeometry width="50" height="50" relative="1" as="geometry">
            <mxPoint x="505" y="585" as="sourcePoint" />
            <mxPoint x="655" y="575" as="targetPoint" />
          </mxGeometry>
        </mxCell>
        <mxCell id="dGpeaqjXoYI7zpuX5_f6-10" value="" style="endArrow=classic;html=1;rounded=1;exitX=1;exitY=0.5;exitDx=0;exitDy=0;entryX=0;entryY=0.5;entryDx=0;entryDy=0;curved=0;jumpStyle=arc;" edge="1" parent="1" source="IgeLQids6hlCfI4V9-Eq-97" target="dGpeaqjXoYI7zpuX5_f6-5">
          <mxGeometry width="50" height="50" relative="1" as="geometry">
            <mxPoint x="620" y="640" as="sourcePoint" />
            <mxPoint x="640" y="640" as="targetPoint" />
          </mxGeometry>
        </mxCell>
        <mxCell id="dGpeaqjXoYI7zpuX5_f6-11" value="" style="shape=sumEllipse;perimeter=ellipsePerimeter;html=1;backgroundOutline=1;" vertex="1" parent="1">
          <mxGeometry x="660" y="341.53" width="20" height="20" as="geometry" />
        </mxCell>
        <mxCell id="dGpeaqjXoYI7zpuX5_f6-12" value="" style="rhombus;whiteSpace=wrap;html=1;" vertex="1" parent="1">
          <mxGeometry x="655" y="570" width="30" height="10" as="geometry" />
        </mxCell>
        <mxCell id="dGpeaqjXoYI7zpuX5_f6-13" value="" style="endArrow=classic;html=1;rounded=1;exitX=0.5;exitY=1;exitDx=0;exitDy=0;entryX=0.5;entryY=0;entryDx=0;entryDy=0;curved=0;jumpStyle=arc;" edge="1" parent="1" source="dGpeaqjXoYI7zpuX5_f6-12" target="dGpeaqjXoYI7zpuX5_f6-6">
          <mxGeometry width="50" height="50" relative="1" as="geometry">
            <mxPoint x="620" y="640" as="sourcePoint" />
            <mxPoint x="665" y="640" as="targetPoint" />
          </mxGeometry>
        </mxCell>
        <mxCell id="dGpeaqjXoYI7zpuX5_f6-14" value="" style="endArrow=classic;html=1;rounded=1;exitX=0.5;exitY=1;exitDx=0;exitDy=0;entryX=0.5;entryY=0;entryDx=0;entryDy=0;curved=0;jumpStyle=arc;" edge="1" parent="1" source="dGpeaqjXoYI7zpuX5_f6-11" target="dGpeaqjXoYI7zpuX5_f6-12">
          <mxGeometry width="50" height="50" relative="1" as="geometry">
            <mxPoint x="620" y="640" as="sourcePoint" />
            <mxPoint x="665" y="640" as="targetPoint" />
          </mxGeometry>
        </mxCell>
        <mxCell id="dGpeaqjXoYI7zpuX5_f6-15" value="" style="shape=sumEllipse;perimeter=ellipsePerimeter;html=1;backgroundOutline=1;" vertex="1" parent="1">
          <mxGeometry x="700" y="730" width="20" height="20" as="geometry" />
        </mxCell>
        <mxCell id="dGpeaqjXoYI7zpuX5_f6-16" value="" style="endArrow=classic;html=1;rounded=1;exitX=0.5;exitY=1;exitDx=0;exitDy=0;entryX=0.5;entryY=0;entryDx=0;entryDy=0;curved=0;jumpStyle=arc;" edge="1" parent="1" source="dGpeaqjXoYI7zpuX5_f6-15" target="IgeLQids6hlCfI4V9-Eq-107">
          <mxGeometry width="50" height="50" relative="1" as="geometry">
            <mxPoint x="680" y="645" as="sourcePoint" />
            <mxPoint x="680" y="675" as="targetPoint" />
          </mxGeometry>
        </mxCell>
        <mxCell id="dGpeaqjXoYI7zpuX5_f6-18" value="Ввод нового пароля" style="shape=umlState;rounded=1;verticalAlign=top;spacingTop=5;umlStateSymbol=collapseState;absoluteArcSize=1;arcSize=10;html=1;whiteSpace=wrap;fillColor=#ffcc99;strokeColor=#36393d;" vertex="1" parent="1">
          <mxGeometry x="915" y="675" width="140" height="60" as="geometry" />
        </mxCell>
        <mxCell id="dGpeaqjXoYI7zpuX5_f6-19" value="" style="ellipse;whiteSpace=wrap;html=1;" vertex="1" parent="1">
          <mxGeometry x="975" y="730" width="20" height="20" as="geometry" />
        </mxCell>
        <mxCell id="dGpeaqjXoYI7zpuX5_f6-20" value="Восстановления пароля" style="shape=umlState;rounded=1;verticalAlign=top;spacingTop=5;umlStateSymbol=collapseState;absoluteArcSize=1;arcSize=10;html=1;whiteSpace=wrap;fillColor=#ffcc99;strokeColor=#36393d;" vertex="1" parent="1">
          <mxGeometry x="915" y="295" width="140" height="60" as="geometry" />
        </mxCell>
        <mxCell id="dGpeaqjXoYI7zpuX5_f6-21" value="" style="ellipse;whiteSpace=wrap;html=1;" vertex="1" parent="1">
          <mxGeometry x="975" y="280" width="20" height="20" as="geometry" />
        </mxCell>
        <mxCell id="dGpeaqjXoYI7zpuX5_f6-22" value="" style="endArrow=classic;html=1;rounded=1;exitX=0.5;exitY=1;exitDx=0;exitDy=0;entryX=0.5;entryY=0;entryDx=0;entryDy=0;curved=0;" edge="1" parent="1" source="IgeLQids6hlCfI4V9-Eq-105" target="dGpeaqjXoYI7zpuX5_f6-21">
          <mxGeometry width="50" height="50" relative="1" as="geometry">
            <mxPoint x="995" y="790" as="sourcePoint" />
            <mxPoint x="995" y="760" as="targetPoint" />
          </mxGeometry>
        </mxCell>
        <mxCell id="dGpeaqjXoYI7zpuX5_f6-23" value="" style="shape=sumEllipse;perimeter=ellipsePerimeter;html=1;backgroundOutline=1;" vertex="1" parent="1">
          <mxGeometry x="975" y="341.53" width="20" height="20" as="geometry" />
        </mxCell>
        <mxCell id="dGpeaqjXoYI7zpuX5_f6-24" value="" style="shape=sumEllipse;perimeter=ellipsePerimeter;html=1;backgroundOutline=1;" vertex="1" parent="1">
          <mxGeometry x="975" y="665" width="20" height="20" as="geometry" />
        </mxCell>
        <mxCell id="dGpeaqjXoYI7zpuX5_f6-26" value="" style="endArrow=classic;html=1;rounded=1;exitX=0.5;exitY=1;exitDx=0;exitDy=0;entryX=0.5;entryY=0;entryDx=0;entryDy=0;curved=0;jumpStyle=arc;" edge="1" parent="1" source="dGpeaqjXoYI7zpuX5_f6-23" target="IgeLQids6hlCfI4V9-Eq-19">
          <mxGeometry width="50" height="50" relative="1" as="geometry">
            <mxPoint x="680" y="645" as="sourcePoint" />
            <mxPoint x="680" y="675" as="targetPoint" />
          </mxGeometry>
        </mxCell>
        <mxCell id="dGpeaqjXoYI7zpuX5_f6-28" value="" style="endArrow=classic;html=1;rounded=1;exitX=0.5;exitY=0;exitDx=0;exitDy=0;entryX=0.5;entryY=1;entryDx=0;entryDy=0;curved=0;jumpStyle=arc;" edge="1" parent="1" source="dGpeaqjXoYI7zpuX5_f6-24" target="IgeLQids6hlCfI4V9-Eq-19">
          <mxGeometry width="50" height="50" relative="1" as="geometry">
            <mxPoint x="995" y="372" as="sourcePoint" />
            <mxPoint x="995" y="440" as="targetPoint" />
          </mxGeometry>
        </mxCell>
        <mxCell id="dGpeaqjXoYI7zpuX5_f6-29" value="" style="endArrow=none;dashed=1;html=1;rounded=0;entryX=0;entryY=0.5;entryDx=0;entryDy=0;entryPerimeter=0;" edge="1" parent="1" target="Hw_Np0mPRpR-K1o3CZ9B-10">
          <mxGeometry width="50" height="50" relative="1" as="geometry">
            <mxPoint x="1100" y="680" as="sourcePoint" />
            <mxPoint x="1210" y="315" as="targetPoint" />
          </mxGeometry>
        </mxCell>
        <mxCell id="dGpeaqjXoYI7zpuX5_f6-30" value="Проверка токена" style="shape=umlState;rounded=1;verticalAlign=top;spacingTop=5;umlStateSymbol=collapseState;absoluteArcSize=1;arcSize=10;html=1;whiteSpace=wrap;fillColor=#ffcc99;strokeColor=#36393d;" vertex="1" parent="1">
          <mxGeometry x="915" y="830" width="140" height="60" as="geometry" />
        </mxCell>
        <mxCell id="dGpeaqjXoYI7zpuX5_f6-31" value="" style="ellipse;whiteSpace=wrap;html=1;" vertex="1" parent="1">
          <mxGeometry x="905" y="850" width="20" height="20" as="geometry" />
        </mxCell>
        <mxCell id="dGpeaqjXoYI7zpuX5_f6-32" value="" style="shape=sumEllipse;perimeter=ellipsePerimeter;html=1;backgroundOutline=1;direction=south;" vertex="1" parent="1">
          <mxGeometry x="1045" y="850" width="20" height="20" as="geometry" />
        </mxCell>
        <mxCell id="dGpeaqjXoYI7zpuX5_f6-33" value="" style="shape=sumEllipse;perimeter=ellipsePerimeter;html=1;backgroundOutline=1;direction=south;" vertex="1" parent="1">
          <mxGeometry x="975" y="820" width="20" height="20" as="geometry" />
        </mxCell>
      </root>
    </mxGraphModel>
  </diagram>
</mxfile>
